<?xml version="1.0" encoding="UTF-8"?>
<svg version="1.1" xmlns="http://www.w3.org/2000/svg" width="574" height="435">
<path d="M0 0 C0.5775 0.20625 1.155 0.4125 1.75 0.625 C2.08 0.295 2.41 -0.035 2.75 -0.375 C13.91819656 -1.31963333 22.36106293 -1.12174062 31.75 5.625 C32.38550781 6.00398437 33.02101562 6.38296875 33.67578125 6.7734375 C36.83478697 8.65828578 38.33898048 10.26026115 39.75 13.625 C40.20761719 14.06457031 40.66523438 14.50414062 41.13671875 14.95703125 C43.01362653 16.89756303 44.11081608 18.86899102 45.375 21.25 C46.80339916 24.12582385 46.80339916 24.12582385 48.75 26.625 C48.83726223 28.40571246 48.85699041 30.1898314 48.84765625 31.97265625 C48.84282227 33.59204102 48.84282227 33.59204102 48.83789062 35.24414062 C48.82532227 36.94860352 48.82532227 36.94860352 48.8125 38.6875 C48.80798828 39.82767578 48.80347656 40.96785156 48.79882812 42.14257812 C48.78699747 44.97010351 48.7705141 47.7975264 48.75 50.625 C48.09 50.625 47.43 50.625 46.75 50.625 C46.70875 51.594375 46.6675 52.56375 46.625 53.5625 C45.74845969 59.89163667 41.30247282 65.34517982 36.75 69.625 C34.37391509 71.34031376 31.87388995 72.84575653 29.375 74.375 C28.715 74.79910156 28.055 75.22320312 27.375 75.66015625 C22.41600225 78.69285009 22.41600225 78.69285009 18.8359375 78.328125 C18.14757812 78.09609375 17.45921875 77.8640625 16.75 77.625 C16.42 77.955 16.09 78.285 15.75 78.625 C5.07309867 79.65112555 -2.17435522 78.75596802 -11.25 72.625 C-12.61999519 71.90703461 -13.99436667 71.19728956 -15.375 70.5 C-18.25 68.625 -18.25 68.625 -19 66.4375 C-19.0825 65.839375 -19.165 65.24125 -19.25 64.625 C-20.24 64.295 -21.23 63.965 -22.25 63.625 C-23.8203125 61.19140625 -23.8203125 61.19140625 -25.375 58.1875 C-26.15230469 56.70443359 -26.15230469 56.70443359 -26.9453125 55.19140625 C-31.12818955 46.96341157 -31.09004165 34.92817296 -28.50878906 26.0859375 C-26.58319087 21.29298133 -24.07684181 16.93823091 -21.25 12.625 C-20.77949219 11.88636719 -20.30898437 11.14773437 -19.82421875 10.38671875 C-17.77376915 8.09204686 -15.60604964 6.96543646 -12.875 5.5625 C-10.02893501 4.08458471 -7.25386443 2.62743337 -4.5390625 0.91796875 C-2.25 -0.375 -2.25 -0.375 0 0 Z M8.75 17.625 C7.93208984 18.2746875 7.93208984 18.2746875 7.09765625 18.9375 C3.69872939 21.38065541 0.01517674 23.19375459 -3.69140625 25.125 C-6.06210281 26.51484348 -7.54696269 27.50237379 -9.25 29.625 C-9.86578534 33.06710184 -9.61777621 36.51382416 -9.5 40 C-9.51417969 40.94617188 -9.52835938 41.89234375 -9.54296875 42.8671875 C-9.45087265 45.71816233 -9.24382822 47.94727117 -8.25 50.625 C-5.53800847 53.0290274 -2.58477885 54.27413314 0.75 55.625 C1.83410156 56.21925781 2.91820312 56.81351563 4.03515625 57.42578125 C4.95167969 57.92464844 5.86820313 58.42351562 6.8125 58.9375 C7.75222656 59.44925781 8.69195312 59.96101563 9.66015625 60.48828125 C10.34980469 60.86339844 11.03945312 61.23851562 11.75 61.625 C12.51570313 60.76648438 12.51570313 60.76648438 13.296875 59.890625 C16.28453636 57.13131993 19.45148082 55.32235808 23 53.375 C23.6496875 53.01148438 24.299375 52.64796875 24.96875 52.2734375 C26.55918426 51.38466541 28.15414448 50.50400064 29.75 49.625 C29.09 49.295 28.43 48.965 27.75 48.625 C27.75 41.695 27.75 34.765 27.75 27.625 C20.52118495 23.59249471 20.52118495 23.59249471 13.1875 19.8125 C12.34058594 19.39355469 11.49367188 18.97460938 10.62109375 18.54296875 C10.00363281 18.24003906 9.38617188 17.93710938 8.75 17.625 Z " fill="#E78FB5" transform="translate(114.25,178.375)"/>
<path d="M0 0 C2.48281628 1.42629871 4.74670579 2.84723286 6.9375 4.6875 C6.75 7.0625 6.75 7.0625 5.9375 9.6875 C3.75 11.25 3.75 11.25 0.9375 11.6875 C0.07125 11.06875 -0.795 10.45 -1.6875 9.8125 C-6.46099227 6.80696783 -10.55994237 6.77859539 -16.0625 7.6875 C-20.75261924 10.20006388 -22.31709437 12.56547457 -24.1875 17.5 C-25.13766606 21.25036133 -25.18516184 23.53354031 -23.5625 27.0625 C-20.55288931 31.89937433 -17.82133772 34.26197475 -12.1875 35.625 C-7.79532716 36.00910637 -4.92331521 34.69834126 -1.0625 32.6875 C-2.63515794 31.11484206 -4.39090029 31.37992023 -6.5625 31.1875 C-10.95138889 30.79861111 -10.95138889 30.79861111 -12.0625 29.6875 C-12.1875 26.6875 -12.1875 26.6875 -12.0625 23.6875 C-10.1769747 21.8019747 -7.48481169 22.55503311 -4.98046875 22.55078125 C-4.18253906 22.55464844 -3.38460937 22.55851562 -2.5625 22.5625 C-1.36560547 22.55669922 -1.36560547 22.55669922 -0.14453125 22.55078125 C5.81089233 22.56089233 5.81089233 22.56089233 6.9375 23.6875 C8.32954401 35.77297299 8.32954401 35.77297299 5.48046875 39.69140625 C-1.36666176 44.52043513 -8.96329725 44.32502039 -17.0625 43.6875 C-23.06422311 42.06164622 -26.56343131 38.68616955 -30.0625 33.6875 C-30.660625 32.841875 -31.25875 31.99625 -31.875 31.125 C-34.06434592 24.78741971 -34.37109085 18.12139088 -31.9609375 11.796875 C-25.46971877 0.20293353 -12.89150574 -5.36443921 0 0 Z " fill="#282726" transform="translate(216.0625,196.3125)"/>
<path d="M0 0 C3.0625 0.1875 3.0625 0.1875 5.0625 2.1875 C5.20747985 4.76814129 5.24927545 7.23693884 5.1875 9.8125 C5.17847656 10.51890625 5.16945313 11.2253125 5.16015625 11.953125 C5.13657603 13.69806098 5.10070461 15.44282295 5.0625 17.1875 C6.0525 16.8575 7.0425 16.5275 8.0625 16.1875 C12.36263364 15.76876039 15.99319736 15.7324776 20 17.4375 C22.85557303 19.86041045 23.90169304 21.93995323 24.38134766 25.66113281 C24.428479 27.01223145 24.428479 27.01223145 24.4765625 28.390625 C24.51523437 29.3703125 24.55390625 30.35 24.59375 31.359375 C24.6246875 32.37515625 24.655625 33.3909375 24.6875 34.4375 C24.72617187 35.46875 24.76484375 36.5 24.8046875 37.5625 C24.89881674 40.1039894 24.98444979 42.64547433 25.0625 45.1875 C22.72955225 45.22991723 20.39547433 45.22842937 18.0625 45.1875 C15.71288106 42.83788106 16.65114466 36.07833946 16.54492188 32.71289062 C16.51076172 31.91173828 16.47660156 31.11058594 16.44140625 30.28515625 C16.4163501 29.54789307 16.39129395 28.81062988 16.36547852 28.05102539 C16.20935298 25.94470731 16.20935298 25.94470731 14.0625 24.1875 C9.72055064 24.28445116 9.72055064 24.28445116 6.0625 26.1875 C5.91863896 27.51636073 5.83573712 28.85198587 5.78125 30.1875 C5.74386719 30.991875 5.70648438 31.79625 5.66796875 32.625 C5.63316406 33.470625 5.59835937 34.31625 5.5625 35.1875 C5.49389491 36.85434971 5.42119777 38.52103774 5.34375 40.1875 C5.29831055 41.30125 5.29831055 41.30125 5.25195312 42.4375 C5.0625 44.1875 5.0625 44.1875 4.0625 45.1875 C1.72952567 45.22842937 -0.60455225 45.22991723 -2.9375 45.1875 C-3.10534025 38.93970534 -3.26530106 32.69174527 -3.41967773 26.44360352 C-3.47318206 24.31627795 -3.52851764 22.18899764 -3.58569336 20.06176758 C-3.66736981 17.0113298 -3.74254681 13.96079203 -3.81640625 10.91015625 C-3.84344131 9.95287125 -3.87047638 8.99558624 -3.89833069 8.0092926 C-3.91842697 7.12845505 -3.93852325 6.24761749 -3.95922852 5.34008789 C-3.97921402 4.56065323 -3.99919952 3.78121857 -4.01979065 2.97816467 C-3.87808727 -0.10533563 -3.10756387 0.19835514 0 0 Z " fill="#131212" transform="translate(331.9375,194.8125)"/>
<path d="M0 0 C2.31 0 4.62 0 7 0 C8.71443219 1.71443219 8.23052967 4.00445241 8.31640625 6.34765625 C8.37924805 7.96704102 8.37924805 7.96704102 8.44335938 9.61914062 C8.48267578 10.75544922 8.52199219 11.89175781 8.5625 13.0625 C8.60568359 14.20267578 8.64886719 15.34285156 8.69335938 16.51757812 C8.79982839 19.34492195 8.90184207 22.17235738 9 25 C9.72316406 24.15115234 9.72316406 24.15115234 10.4609375 23.28515625 C11.09257812 22.55167969 11.72421875 21.81820312 12.375 21.0625 C13.00148438 20.33160156 13.62796875 19.60070312 14.2734375 18.84765625 C16 17 16 17 18 16 C19.99960012 15.960008 22.00047242 15.95653201 24 16 C24.77734375 17.703125 24.77734375 17.703125 25 20 C23.12890625 22.359375 23.12890625 22.359375 20.5625 24.75 C19.71816406 25.54921875 18.87382812 26.3484375 18.00390625 27.171875 C17.34261719 27.77515625 16.68132812 28.3784375 16 29 C17.30068506 31.96758242 18.53649171 33.686745 21.125 35.625 C22.07375 36.40875 23.0225 37.1925 24 38 C24 38.66 24 39.32 24 40 C25.485 40.495 25.485 40.495 27 41 C27 42.32 27 43.64 27 45 C23.75181034 45.6015166 22.13406665 45.85110436 19 45 C15.28404214 41.99986405 12.1334782 38.59579466 9 35 C8.67 38.3 8.34 41.6 8 45 C5.69 45 3.38 45 1 45 C0.67 30.15 0.34 15.3 0 0 Z " fill="#1F1D1D" transform="translate(407,195)"/>
<path d="M0 0 C3.72558493 2.70951631 5.26796759 5.68863299 6.75 10 C7.125 12.875 7.125 12.875 6.75 15 C6.09 15.66 5.43 16.32 4.75 17 C4.87375 18.670625 4.87375 18.670625 5 20.375 C4.75 24 4.75 24 2.4375 26.4375 C-2.67199236 29.23440221 -8.93829664 28.95817819 -14.41015625 27.375 C-17.91062373 25.71023415 -19.74686544 23.6433674 -21.25 20.1875 C-23.00391127 14.39851679 -21.70494859 9.4008869 -19.25 4 C-18.59 4 -17.93 4 -17.25 4 C-17.25 3.34 -17.25 2.68 -17.25 2 C-11.2423431 -1.60459414 -6.59106637 -2.02802042 0 0 Z M-11.5625 7.3125 C-12.119375 7.869375 -12.67625 8.42625 -13.25 9 C-13.25 9.66 -13.25 10.32 -13.25 11 C-9.62 11 -5.99 11 -2.25 11 C-3.74701776 6.89304073 -3.74701776 6.89304073 -6.625 6.0625 C-9.31244667 5.77343776 -9.31244667 5.77343776 -11.5625 7.3125 Z M-11.25 17 C-11.25 17.99 -11.25 18.98 -11.25 20 C-9.37356239 21.87643761 -6.75194299 21.17984987 -4.2578125 21.23046875 C-1.93325672 21.11831337 -1.93325672 21.11831337 0.75 19 C0.75 18.34 0.75 17.68 0.75 17 C-3.21 17 -7.17 17 -11.25 17 Z " fill="#111010" transform="translate(457.25,212)"/>
<path d="M0 0 C4.96622349 -0.02465098 9.93241166 -0.04283649 14.89868164 -0.05493164 C16.58944316 -0.0599719 18.28020029 -0.06680405 19.97094727 -0.07543945 C22.39600707 -0.08751857 24.82100944 -0.09323123 27.24609375 -0.09765625 C28.38672523 -0.10539818 28.38672523 -0.10539818 29.55039978 -0.11329651 C31.3673257 -0.11349238 33.18413127 -0.06197277 35 0 C36 1 36 1 36.125 4 C36 7 36 7 35 8 C32.81360547 8.07258946 30.62499611 8.08373783 28.4375 8.0625 C26.64119141 8.04896484 26.64119141 8.04896484 24.80859375 8.03515625 C23.88175781 8.02355469 22.95492188 8.01195312 22 8 C22.00785522 9.62796509 22.00785522 9.62796509 22.01586914 11.28881836 C22.03391836 15.30117982 22.04543171 19.31353767 22.05493164 23.32592773 C22.05997204 25.06519168 22.0668043 26.80445136 22.07543945 28.54370117 C22.08751792 31.03825937 22.09323108 33.53276173 22.09765625 36.02734375 C22.10281754 36.80963852 22.10797882 37.59193329 22.11329651 38.39793396 C22.11349226 40.26567114 22.06199694 42.13329204 22 44 C21 45 21 45 18 45.125 C15 45 15 45 14 44 C13.91144839 41.3337397 13.88475327 38.69352886 13.90234375 36.02734375 C13.9037587 35.22970108 13.90517365 34.43205841 13.90663147 33.61024475 C13.91224684 31.05262565 13.92480188 28.49509282 13.9375 25.9375 C13.94251302 24.20768355 13.94707627 22.47786574 13.95117188 20.74804688 C13.96222125 16.49866447 13.97949614 12.24934688 14 8 C12.60974609 8.01740234 12.60974609 8.01740234 11.19140625 8.03515625 C9.99386719 8.04417969 8.79632813 8.05320313 7.5625 8.0625 C6.36753906 8.07410156 5.17257812 8.08570313 3.94140625 8.09765625 C1 8 1 8 0 7 C-0.04092937 4.66702567 -0.04241723 2.33294775 0 0 Z " fill="#474643" transform="translate(289,195)"/>
<path d="M0 0 C3.49368454 1.67405718 6.08603696 3.80787429 8.4375 6.875 C9.27467301 10.03765358 9.29553989 12.74906117 9 16 C7.5 17.9375 7.5 17.9375 6 19 C6.66 20.65 7.32 22.3 8 24 C4.9579765 27.25181822 3.05930549 28.80279806 -1.48828125 29.23828125 C-6.08839315 29.35916939 -9.27182378 29.33808181 -13.5 27.375 C-17.5676451 23.51073716 -19.1479244 20.05798327 -19.4375 14.5 C-19.26335262 9.99488292 -18.02845049 7.42693082 -15 4 C-10.32044028 -0.13542487 -6.05155651 -1.22922242 0 0 Z M-9.375 8.3125 C-11.2312139 9.84965539 -11.2312139 9.84965539 -11 12 C-7.37 12 -3.74 12 0 12 C-0.33 10.68 -0.66 9.36 -1 8 C-5.31873812 6.857958 -5.31873812 6.857958 -9.375 8.3125 Z M-9 18 C-9.33 18.66 -9.66 19.32 -10 20 C-6.29873141 22.46751239 -4.37776468 22.30721156 0 22 C2.35369807 21.11935073 2.35369807 21.11935073 4 20 C3.67 19.34 3.34 18.68 3 18 C-0.96 18 -4.92 18 -9 18 Z " fill="#1B1A19" transform="translate(245,211)"/>
<path d="M0 0 C2.5625 0.1875 2.5625 0.1875 4.5625 2.1875 C5.0575 1.8575 5.5525 1.5275 6.0625 1.1875 C9.58210112 -0.22034045 12.85849539 -0.39659303 16.5625 0.1875 C20.60679834 2.28454358 22.90781288 3.95218686 24.5625 8.1875 C24.78955078 10.56933594 24.78955078 10.56933594 24.7578125 13.171875 C24.75136719 14.10644531 24.74492187 15.04101562 24.73828125 16.00390625 C24.72152344 16.97199219 24.70476562 17.94007813 24.6875 18.9375 C24.67847656 19.92105469 24.66945313 20.90460938 24.66015625 21.91796875 C24.63662785 24.34139407 24.60375368 26.76432222 24.5625 29.1875 C22.2525 29.1875 19.9425 29.1875 17.5625 29.1875 C17.5625 22.9175 17.5625 16.6475 17.5625 10.1875 C16.9025 10.1875 16.2425 10.1875 15.5625 10.1875 C15.5625 9.5275 15.5625 8.8675 15.5625 8.1875 C12.5925 8.1875 9.6225 8.1875 6.5625 8.1875 C6.5625 8.8475 6.5625 9.5075 6.5625 10.1875 C5.9025 10.1875 5.2425 10.1875 4.5625 10.1875 C4.5625 16.4575 4.5625 22.7275 4.5625 29.1875 C1.9225 29.1875 -0.7175 29.1875 -3.4375 29.1875 C-3.46215881 25.21819011 -3.48034023 21.24890966 -3.49243164 17.27954102 C-3.49747057 15.92829614 -3.50430177 14.57705674 -3.51293945 13.22583008 C-3.52502419 11.28729566 -3.53019828 9.348722 -3.53515625 7.41015625 C-3.54039307 6.24234619 -3.54562988 5.07453613 -3.55102539 3.87133789 C-3.39832671 0.26140975 -3.39832671 0.26140975 0 0 Z " fill="#201F1D" transform="translate(260.4375,210.8125)"/>
<path d="M0 0 C1.98 0 3.96 0 6 0 C6.66 0.66 7.32 1.32 8 2 C8.99 1.34 9.98 0.68 11 0 C16.50747298 -0.45143221 20.36444131 -0.34191441 25 3 C28.15930156 8.72250849 28.37873725 13.48937211 28.1875 19.9375 C28.16719727 21.24944336 28.16719727 21.24944336 28.14648438 22.58789062 C28.11144109 24.72553086 28.05764541 26.86284984 28 29 C25.66705225 29.04241723 23.33297433 29.04092937 21 29 C20 28 20 28 19.88647461 26.23413086 C19.89171143 25.48526611 19.89694824 24.73640137 19.90234375 23.96484375 C19.90556641 23.15595703 19.90878906 22.34707031 19.91210938 21.51367188 C19.92048828 20.66353516 19.92886719 19.81339844 19.9375 18.9375 C19.94201172 18.08349609 19.94652344 17.22949219 19.95117188 16.34960938 C19.96299627 14.23304337 19.98093231 12.11651315 20 10 C19.34 10 18.68 10 18 10 C17.67 9.34 17.34 8.68 17 8 C13.53058454 8.45822468 10.32604951 8.89131683 7 10 C7 16.27 7 22.54 7 29 C4.69 29 2.38 29 0 29 C0 19.43 0 9.86 0 0 Z " fill="#1E1E1C" transform="translate(375,211)"/>
<path d="M0 0 C0.99 0.33 1.98 0.66 3 1 C3 7.93 3 14.86 3 22 C4.32 22.33 5.64 22.66 7 23 C12.07959509 25.44438475 16.73997313 28.28965401 21 32 C20.030625 31.814375 19.06125 31.62875 18.0625 31.4375 C17.051875 31.293125 16.04125 31.14875 15 31 C14.67 31.33 14.34 31.66 14 32 C13.01 32 12.02 32 11 32 C11.33 32.99 11.66 33.98 12 35 C11.34 35 10.68 35 10 35 C10 35.66 10 36.32 10 37 C10.99 37 11.98 37 13 37 C13.33 37.99 13.66 38.98 14 40 C15.9812585 40.72045764 17.98504093 41.38001259 20 42 C20.9075 42.556875 21.815 43.11375 22.75 43.6875 C23.4925 44.120625 24.235 44.55375 25 45 C25.99 44.505 25.99 44.505 27 44 C30 44 30 44 33 45 C33 45.66 33 46.32 33 47 C33.99 47.33 34.98 47.66 36 48 C31.375 50.125 31.375 50.125 28 49 C27.67 49.33 27.34 49.66 27 50 C16.48953189 51.01013015 8.87423691 50.3172534 0 44 C2.9018448 41.78641326 5.84572265 39.83999512 9 38 C7.824375 37.319375 7.824375 37.319375 6.625 36.625 C4 35 4 35 2 33 C1.77294922 29.92724609 1.77294922 29.92724609 1.8046875 26.0234375 C1.8075174 25.33819 1.81034729 24.6529425 1.81326294 23.94692993 C1.82446719 21.75610973 1.84957141 19.56569684 1.875 17.375 C1.88502952 15.8906309 1.89415542 14.4062554 1.90234375 12.921875 C1.92440706 9.28111739 1.95893824 5.64059844 2 2 C1.01 2.33 0.02 2.66 -1 3 C-0.67 2.01 -0.34 1.02 0 0 Z " fill="#EB8CB5" transform="translate(103,207)"/>
<path d="M0 0 C0.33 0.66 0.66 1.32 1 2 C4.02934491 2.65772428 4.02934491 2.65772428 7 3 C7 3.66 7 4.32 7 5 C7.7425 5.12375 8.485 5.2475 9.25 5.375 C12 6 12 6 13.875 7.0625 C16.92620787 8.40862112 19.71039861 8.12652313 23 8 C23 7.34 23 6.68 23 6 C23.94875 5.9175 24.8975 5.835 25.875 5.75 C26.90625 5.5025 27.9375 5.255 29 5 C29.309375 4.34 29.61875 3.68 29.9375 3 C30.4634375 2.01 30.4634375 2.01 31 1 C34.625 0.25 34.625 0.25 38 0 C38.85251251 3.3325489 39.32529371 5.27864692 37.88671875 8.46875 C35.62149816 11.50780371 33.40716428 12.93405436 30.125 14.8125 C28.58199219 15.71935547 28.58199219 15.71935547 27.0078125 16.64453125 C24.00653072 17.99705694 22.23714767 18.30460246 19 18 C19 17.34 19 16.68 19 16 C16.525 15.505 16.525 15.505 14 15 C13.67 15.66 13.34 16.32 13 17 C10.4568484 15.98273936 7.91396591 14.96517668 5.375 13.9375 C3.6035072 13.23822653 1.80677977 12.60225992 0 12 C-0.6875 9.9375 -0.6875 9.9375 -1 8 C-1.99 8 -2.98 8 -4 8 C-3.50168276 4.31245243 -2.89932357 2.39509338 0 0 Z " fill="#E88CB3" transform="translate(117,236)"/>
<path d="M0 0 C0.01458252 0.92337158 0.02916504 1.84674316 0.04418945 2.7980957 C0.10526308 6.22577204 0.1794161 9.65264662 0.26245117 13.07983398 C0.29569423 14.56279854 0.32372823 16.04588944 0.34643555 17.52905273 C0.37999468 19.66184293 0.43230638 21.79347612 0.48828125 23.92578125 C0.51446533 25.20880127 0.54064941 26.49182129 0.56762695 27.8137207 C0.73578901 30.94918511 0.73578901 30.94918511 2.36401367 32.86791992 C4.45605262 34.31558215 6.60696925 35.15920541 9 36 C8.4225 36.268125 7.845 36.53625 7.25 36.8125 C4.94531764 37.90371332 4.94531764 37.90371332 3.1875 39.6875 C-0.09295879 41.65577528 -2.3777909 40.85615852 -6 40 C-6.99 39.34 -7.98 38.68 -9 38 C-9.26697888 35.37537756 -9.34832984 32.98934067 -9.29296875 30.3671875 C-9.28872391 29.61535187 -9.28447906 28.86351624 -9.28010559 28.08889771 C-9.2632917 25.68390315 -9.22563624 23.27974191 -9.1875 20.875 C-9.17245659 19.24610584 -9.15876758 17.61719856 -9.14648438 15.98828125 C-9.11337954 11.99186566 -9.06158009 7.99607418 -9 4 C-2.25 0 -2.25 0 0 0 Z " fill="#E98CB5" transform="translate(105,209)"/>
<path d="M0 0 C1.89630899 1.89630899 1.13057301 5.22061859 1.1328125 7.73828125 C1.13376923 8.415457 1.13472595 9.09263275 1.13571167 9.79032898 C1.13639357 11.22700086 1.1345386 12.6636758 1.13037109 14.1003418 C1.12504764 16.29287726 1.1303028 18.48520554 1.13671875 20.67773438 C1.13605748 22.07291712 1.13477532 23.46809973 1.1328125 24.86328125 C1.13168457 26.13469971 1.13055664 27.40611816 1.12939453 28.71606445 C0.93293471 33.70206646 0.93293471 33.70206646 0 36 C-5.03571429 39 -5.03571429 39 -8 39 C-8.33 26.46 -8.66 13.92 -9 1 C-5.78419562 -0.07193479 -3.36629251 -0.14636054 0 0 Z " fill="#E88DB4" transform="translate(151,187)"/>
<path d="M0 0 C2.625 0.125 2.625 0.125 5.625 1.125 C6.285 0.795 6.945 0.465 7.625 0.125 C11.29829964 -0.00857453 14.12352959 -0.0421568 17.625 1.125 C18.5 3 18.5 3 18.625 5.125 C17.42578125 6.74609375 17.42578125 6.74609375 15.625 8.125 C13.36328125 8.41796875 13.36328125 8.41796875 10.9375 8.3125 C9.72513672 8.27189453 9.72513672 8.27189453 8.48828125 8.23046875 C7.87339844 8.19566406 7.25851562 8.16085938 6.625 8.125 C5.73860611 10.78418166 5.44510975 12.60564641 5.30859375 15.35546875 C5.26669922 16.15791016 5.22480469 16.96035156 5.18164062 17.78710938 C5.14232422 18.62048828 5.10300781 19.45386719 5.0625 20.3125 C5.01931641 21.15748047 4.97613281 22.00246094 4.93164062 22.87304688 C4.82568482 24.95684433 4.7248498 27.04090103 4.625 29.125 C1.985 29.125 -0.655 29.125 -3.375 29.125 C-3.39965881 25.15569011 -3.41784023 21.18640966 -3.42993164 17.21704102 C-3.43497057 15.86579614 -3.44180177 14.51455674 -3.45043945 13.16333008 C-3.46252419 11.22479566 -3.46769828 9.286222 -3.47265625 7.34765625 C-3.47789307 6.17984619 -3.48312988 5.01203613 -3.48852539 3.80883789 C-3.33483724 0.17551775 -3.33483724 0.17551775 0 0 Z " fill="#2F2E2D" transform="translate(470.375,210.875)"/>
<path d="M0 0 C10.99223923 -0.65300431 19.85792452 -1.10282235 29 6 C30.02435217 6.97503981 31.03472457 7.96644142 32 9 C29.625 10.0625 29.625 10.0625 27 11 C26.34 10.67 25.68 10.34 25 10 C25.24447876 11.5015564 25.24447876 11.5015564 25.49389648 13.03344727 C25.98726338 16.90017761 26.11381949 20.56950283 26.09765625 24.46484375 C26.0962413 25.14301651 26.09482635 25.82118927 26.09336853 26.51991272 C26.08782745 28.65915578 26.07528653 30.79828925 26.0625 32.9375 C26.05747736 34.39908702 26.0529158 35.86067569 26.04882812 37.32226562 C26.03787745 40.88154526 26.02065445 44.44076191 26 48 C27.423125 47.2265625 27.423125 47.2265625 28.875 46.4375 C29.90625 45.963125 30.9375 45.48875 32 45 C32.99 45.495 32.99 45.495 34 46 C28.7265625 49.22265625 28.7265625 49.22265625 27 50 C26.34 49.67 25.68 49.34 25 49 C25 42.07 25 35.14 25 28 C24.34 27.67 23.68 27.34 23 27 C23 23.7 23 20.4 23 17 C21.906875 16.34 20.81375 15.68 19.6875 15 C19.07261719 14.62875 18.45773438 14.2575 17.82421875 13.875 C15.88638074 12.78376001 15.88638074 12.78376001 13 13 C13 12.01 13 11.02 13 10 C12.01 10 11.02 10 10 10 C10 9.34 10 8.68 10 8 C9.278125 7.938125 8.55625 7.87625 7.8125 7.8125 C4.11600926 6.7446249 2.46861132 4.89180184 0 2 C0 1.34 0 0.68 0 0 Z " fill="#F2AFCE" transform="translate(117,178)"/>
<path d="M0 0 C2.48281628 1.42629871 4.74670579 2.84723286 6.9375 4.6875 C6.75 7.0625 6.75 7.0625 5.9375 9.6875 C3.75 11.25 3.75 11.25 0.9375 11.6875 C0.07125 11.06875 -0.795 10.45 -1.6875 9.8125 C-6.43895939 6.82084039 -10.58028191 6.72890406 -16.0625 7.6875 C-18.86407491 9.08345716 -20.69542999 10.58343777 -23.0625 12.6875 C-23.0625 11.6975 -23.0625 10.7075 -23.0625 9.6875 C-24.0525 9.3575 -25.0425 9.0275 -26.0625 8.6875 C-26.3925 8.3575 -26.7225 8.0275 -27.0625 7.6875 C-27.0625 8.6775 -27.0625 9.6675 -27.0625 10.6875 C-28.0525 10.6875 -29.0425 10.6875 -30.0625 10.6875 C-28.75364898 5.12488316 -24.67364029 2.5728868 -20.0625 -0.3125 C-13.99676823 -2.33441059 -5.97278254 -2.48540624 0 0 Z " fill="#1E1D1C" transform="translate(216.0625,196.3125)"/>
<path d="M0 0 C3.5 0.125 3.5 0.125 4.5 1.125 C4.59983058 3.11257028 4.63080753 5.1036752 4.6328125 7.09375 C4.63474609 8.90939453 4.63474609 8.90939453 4.63671875 10.76171875 C4.63285156 12.03660156 4.62898438 13.31148437 4.625 14.625 C4.62886719 15.89988281 4.63273437 17.17476562 4.63671875 18.48828125 C4.63542969 19.69871094 4.63414062 20.90914062 4.6328125 22.15625 C4.63168457 23.27580078 4.63055664 24.39535156 4.62939453 25.54882812 C4.5 28.125 4.5 28.125 3.5 29.125 C-2.02941176 29.36029412 -2.02941176 29.36029412 -4.5 28.125 C-4.52886338 23.64584672 -4.54675187 19.16671709 -4.5625 14.6875 C-4.57087891 13.40810547 -4.57925781 12.12871094 -4.58789062 10.81054688 C-4.59111328 9.59560547 -4.59433594 8.38066406 -4.59765625 7.12890625 C-4.60289307 6.00299072 -4.60812988 4.8770752 -4.61352539 3.71704102 C-4.43919296 -0.2633621 -4.11898628 0.14710665 0 0 Z " fill="#2B2A28" transform="translate(365.5,210.875)"/>
<path d="M0 0 C0.99 0 1.98 0 3 0 C3 12.54 3 25.08 3 38 C1.02 38 -0.96 38 -3 38 C-4 37 -4 37 -4.11352539 33.85717773 C-4.11336633 32.46597303 -4.10767506 31.07476239 -4.09765625 29.68359375 C-4.0962413 28.95253922 -4.09482635 28.22148468 -4.09336853 27.46827698 C-4.08775408 25.12464368 -4.07519922 22.78110461 -4.0625 20.4375 C-4.05748686 18.85221492 -4.05292363 17.26692834 -4.04882812 15.68164062 C-4.03777997 11.7877239 -4.02050572 7.89387795 -4 4 C-2.68 3.34 -1.36 2.68 0 2 C0 1.34 0 0.68 0 0 Z " fill="#0F0E0D" transform="translate(307,202)"/>
<path d="M0 0 C2.32758311 0.93103324 3.74357132 1.65382128 5.25 3.6875 C6.30228998 6.93206078 6.30781132 9.6140755 6 13 C4.5 14.9375 4.5 14.9375 3 16 C3.66 17.65 4.32 19.3 5 21 C1.9334178 24.27807063 0.03949537 25.83808586 -4.55859375 26.203125 C-5.50863281 26.21859375 -6.45867187 26.2340625 -7.4375 26.25 C-8.38496094 26.27578125 -9.33242187 26.3015625 -10.30859375 26.328125 C-13.3902834 25.95241828 -14.71972555 25.0484735 -17 23 C-16.34 23 -15.68 23 -15 23 C-14.67 22.01 -14.34 21.02 -14 20 C-13.34 19.67 -12.68 19.34 -12 19 C-11.67 18.34 -11.34 17.68 -11 17 C-10.67 17.33 -10.34 17.66 -10 18 C-4.67326964 18.33856828 -4.67326964 18.33856828 0 16 C-3.96 15.67 -7.92 15.34 -12 15 C-12 14.67 -12 14.34 -12 14 C-10.741875 13.938125 -9.48375 13.87625 -8.1875 13.8125 C-4.90916988 13.39906938 -4.24143308 13.25563502 -1.875 10.75 C-0.7185718 7.99712946 -0.7185718 7.99712946 -1.8125 5.1875 C-2.204375 4.465625 -2.59625 3.74375 -3 3 C-2.01 2.67 -1.02 2.34 0 2 C0 1.34 0 0.68 0 0 Z " fill="#32312F" transform="translate(248,214)"/>
<path d="M0 0 C1.32 0.33 2.64 0.66 4 1 C3.34 1 2.68 1 2 1 C1.896875 2.0725 1.79375 3.145 1.6875 4.25 C1.02797801 7.84739269 0.54223809 9.45776191 -2 12 C-2.66 12 -3.32 12 -4 12 C-4.33 11.01 -4.66 10.02 -5 9 C-6.98 9 -8.96 9 -11 9 C-11.309375 9.9590625 -11.309375 9.9590625 -11.625 10.9375 C-13 13 -13 13 -16.125 13.75 C-17.548125 13.87375 -17.548125 13.87375 -19 14 C-18.67 14.99 -18.34 15.98 -18 17 C-23.51906726 17.28063054 -26.35692373 17.22435852 -31 14 C-33.19130534 13.30420546 -33.19130534 13.30420546 -35 13 C-35.33 13.66 -35.66 14.32 -36 15 C-35.83203125 13.23046875 -35.83203125 13.23046875 -35 11 C-32.63671875 9.11328125 -32.63671875 9.11328125 -29.6875 7.3125 C-28.72199219 6.71050781 -27.75648438 6.10851562 -26.76171875 5.48828125 C-22.60282576 3.24706735 -22.60282576 3.24706735 -20 3 C-19.34 3.66 -18.68 4.32 -18 5 C-16.68252676 5.69748583 -15.35085807 6.36959957 -14 7 C-13.34 6.34 -12.68 5.68 -12 5 C-11.236875 5.20625 -10.47375 5.4125 -9.6875 5.625 C-6.82999256 6.33424912 -6.82999256 6.33424912 -4.3125 4.125 C-3.549375 3.42375 -2.78625 2.7225 -2 2 C-1.34 1.67 -0.68 1.34 0 1 C0 0.67 0 0.34 0 0 Z " fill="#EA98BB" transform="translate(159,228)"/>
<path d="M0 0 C1.32 0 2.64 0 4 0 C4.125 2.375 4.125 2.375 4 5 C3.34 5.66 2.68 6.32 2 7 C2.12375 8.670625 2.12375 8.670625 2.25 10.375 C2 14 2 14 -0.3125 16.4375 C-5.42199236 19.23440221 -11.68829664 18.95817819 -17.16015625 17.375 C-20.77319525 15.65669695 -22.48466781 13.58856247 -23.9375 10 C-24.89840792 7.0539829 -25 5.22727687 -25 2 C-24.34 2 -23.68 2 -23 2 C-22.7525 2.639375 -22.505 3.27875 -22.25 3.9375 C-21.18437567 6.18741541 -21.18437567 6.18741541 -18.875 6.75 C-18.25625 6.8325 -17.6375 6.915 -17 7 C-17.33 7.66 -17.66 8.32 -18 9 C-17.01 8.67 -16.02 8.34 -15 8 C-14.34 8.66 -13.68 9.32 -13 10 C-8.95820219 10.37209344 -8.95820219 10.37209344 -5 10 C-4.01 9.01 -3.02 8.02 -2 7 C-5.96 7 -9.92 7 -14 7 C-14 6.67 -14 6.34 -14 6 C-10.04 6 -6.08 6 -2 6 C-2 5.34 -2 4.68 -2 4 C-1.34 4 -0.68 4 0 4 C0 2.68 0 1.36 0 0 Z " fill="#1A1A19" transform="translate(460,222)"/>
<path d="M0 0 C5.50570464 -0.28477783 9.35337823 -0.34989011 14 3 C17.15930156 8.72250849 17.37873725 13.48937211 17.1875 19.9375 C17.16719727 21.24944336 17.16719727 21.24944336 17.14648438 22.58789062 C17.11144109 24.72553086 17.05764541 26.86284984 17 29 C14.66705225 29.04241723 12.33297433 29.04092937 10 29 C9 28 9 28 8.88647461 26.23413086 C8.89171143 25.48526611 8.89694824 24.73640137 8.90234375 23.96484375 C8.90556641 23.15595703 8.90878906 22.34707031 8.91210938 21.51367188 C8.92048828 20.66353516 8.92886719 19.81339844 8.9375 18.9375 C8.94201172 18.08349609 8.94652344 17.22949219 8.95117188 16.34960938 C8.96299627 14.23304337 8.98093231 12.11651315 9 10 C8.34 10 7.68 10 7 10 C6.31292445 7.50935112 6 5.62113708 6 3 C4.02 2.34 2.04 1.68 0 1 C0 0.67 0 0.34 0 0 Z " fill="#2C2A2B" transform="translate(386,211)"/>
<path d="M0 0 C2.6875 -0.3125 2.6875 -0.3125 6 0 C8.57285724 2.172635 10.48996919 3.97993838 12 7 C12.08400529 8.59447464 12.10727467 10.19240545 12.09765625 11.7890625 C12.09443359 12.73007813 12.09121094 13.67109375 12.08789062 14.640625 C12.07951172 15.62546875 12.07113281 16.6103125 12.0625 17.625 C12.05798828 18.61757812 12.05347656 19.61015625 12.04882812 20.6328125 C12.03702145 23.0886016 12.020554 25.54427104 12 28 C9.69 28 7.38 28 5 28 C5 21.73 5 15.46 5 9 C4.34 9 3.68 9 3 9 C3 8.34 3 7.68 3 7 C2.34 6.67 1.68 6.34 1 6 C1.66 6 2.32 6 3 6 C3 4.35 3 2.7 3 1 C2.01 0.67 1.02 0.34 0 0 Z " fill="#1E1E1C" transform="translate(273,212)"/>
<path d="M0 0 C2.31 0 4.62 0 7 0 C8.67527538 1.67527538 8.13005577 3.72786922 8.1328125 6.0234375 C8.13474609 7.55484375 8.13474609 7.55484375 8.13671875 9.1171875 C8.13285156 10.19226563 8.12898438 11.26734375 8.125 12.375 C8.12886719 13.44234375 8.13273437 14.5096875 8.13671875 15.609375 C8.13542969 16.63289063 8.13414062 17.65640625 8.1328125 18.7109375 C8.13168457 19.65243652 8.13055664 20.59393555 8.12939453 21.56396484 C8 24 8 24 7 27 C5.0625 27.5625 5.0625 27.5625 3 28 C2.34 28.66 1.68 29.32 1 30 C0.67 20.1 0.34 10.2 0 0 Z " fill="#0E0E0E" transform="translate(407,195)"/>
<path d="M0 0 C0.99 0.33 1.98 0.66 3 1 C3 7.93 3 14.86 3 22 C4.32 22.33 5.64 22.66 7 23 C12.07959509 25.44438475 16.73997313 28.28965401 21 32 C20.030625 31.814375 19.06125 31.62875 18.0625 31.4375 C17.051875 31.293125 16.04125 31.14875 15 31 C14.67 31.33 14.34 31.66 14 32 C13.01 32 12.02 32 11 32 C11.33 32.99 11.66 33.98 12 35 C11.34 35 10.68 35 10 35 C10 35.66 10 36.32 10 37 C10.99 37 11.98 37 13 37 C12.67 37.99 12.34 38.98 12 40 C11.4225 39.54625 10.845 39.0925 10.25 38.625 C8.09273476 36.97503295 8.09273476 36.97503295 5.875 35.9375 C4 35 4 35 2 33 C1.77294922 29.92724609 1.77294922 29.92724609 1.8046875 26.0234375 C1.8075174 25.33819 1.81034729 24.6529425 1.81326294 23.94692993 C1.82446719 21.75610973 1.84957141 19.56569684 1.875 17.375 C1.88502952 15.8906309 1.89415542 14.4062554 1.90234375 12.921875 C1.92440706 9.28111739 1.95893824 5.64059844 2 2 C1.01 2.33 0.02 2.66 -1 3 C-0.67 2.01 -0.34 1.02 0 0 Z " fill="#EFA6C5" transform="translate(103,207)"/>
<path d="M0 0 C1.32 0.66 2.64 1.32 4 2 C3.7608593 3.87896264 3.52152511 5.75790084 3.28125 7.63671875 C3.09280078 9.22021565 2.92632546 10.80647311 2.78125 12.39453125 C2.67296875 13.56048828 2.67296875 13.56048828 2.5625 14.75 C2.50191406 15.46671875 2.44132813 16.1834375 2.37890625 16.921875 C1.95819794 19.22926492 1.13547447 20.9589042 0 23 C-2.4375 22.625 -2.4375 22.625 -5 22 C-6.4097034 19.1805932 -6.16984647 16.76732774 -6.1875 13.625 C-6.20167969 12.48289063 -6.21585938 11.34078125 -6.23046875 10.1640625 C-6.01170034 7.16063184 -5.57080637 5.52074066 -4 3 C-2.68 3 -1.36 3 0 3 C0 2.01 0 1.02 0 0 Z " fill="#161615" transform="translate(189,204)"/>
<path d="M0 0 C3.5 1.5 3.5 1.5 6 3 C5.75 5.875 5.75 5.875 5 9 C2.9375 10.375 2.9375 10.375 1 11 C0.649375 10.505 0.29875 10.01 -0.0625 9.5 C-2.06111104 7.63652217 -2.06111104 7.63652217 -5.5625 8 C-6.696875 8 -7.83125 8 -9 8 C-9.66 7.01 -10.32 6.02 -11 5 C-11.66 6.98 -12.32 8.96 -13 11 C-14.65 11.33 -16.3 11.66 -18 12 C-17.34 9.69 -16.68 7.38 -16 5 C-15.34 5 -14.68 5 -14 5 C-14 4.34 -14 3.68 -14 3 C-9.23861467 0.1431688 -5.43932615 -0.84180048 0 0 Z " fill="#2A2928" transform="translate(454,211)"/>
<path d="M0 0 C2 2 2 2 3.3125 4.875 C5.80866825 9.49753379 9.25916766 11.8929634 14 14 C12.68 15.32 11.36 16.64 10 18 C10.66 18 11.32 18 12 18 C12 18.99 12 19.98 12 21 C6.00466725 20.70023336 2.28996063 17.93088904 -2 14 C-4.0625 11.25 -4.0625 11.25 -5 9 C-4 7 -4 7 -1 6 C-0.67 4.02 -0.34 2.04 0 0 Z " fill="#2C2B2A" transform="translate(190,219)"/>
<path d="M0 0 C3.0625 0.1875 3.0625 0.1875 5.0625 2.1875 C5.3688859 4.92184962 5.5738336 7.57029821 5.6875 10.3125 C5.72617187 11.06660156 5.76484375 11.82070312 5.8046875 12.59765625 C5.89901031 14.46053184 5.98184662 16.32398255 6.0625 18.1875 C5.32 18.166875 4.5775 18.14625 3.8125 18.125 C1.34409657 18.18110008 -0.57614164 18.54670404 -2.9375 19.1875 C-3.1313211 16.20861874 -3.31785102 13.22959754 -3.5 10.25 C-3.55607422 9.39986328 -3.61214844 8.54972656 -3.66992188 7.67382812 C-3.74243164 6.46049805 -3.74243164 6.46049805 -3.81640625 5.22265625 C-3.8635376 4.4737915 -3.91066895 3.72492676 -3.95922852 2.95336914 C-3.92142097 -0.11923756 -3.06648951 0.19573337 0 0 Z " fill="#242423" transform="translate(331.9375,194.8125)"/>
<path d="M0 0 C4.09621053 2.28905883 7.53415091 4.85655548 11 8 C11 8.66 11 9.32 11 10 C11.99 10.33 12.98 10.66 14 11 C14 12.32 14 13.64 14 15 C10.75181034 15.6015166 9.13406665 15.85110436 6 15 C2.28404214 11.99986405 -0.8665218 8.59579466 -4 5 C-2.68 3.35 -1.36 1.7 0 0 Z " fill="#242222" transform="translate(420,225)"/>
<path d="M0 0 C-0.33 0.99 -0.66 1.98 -1 3 C-3.97 3 -6.94 3 -10 3 C-10.33 3.99 -10.66 4.98 -11 6 C-10.34 6 -9.68 6 -9 6 C-8.67 6.99 -8.34 7.98 -8 9 C-8.99 9.33 -9.98 9.66 -11 10 C-11 10.66 -11 11.32 -11 12 C-7.7 12 -4.4 12 -1 12 C-1 12.33 -1 12.66 -1 13 C-4.3 13.33 -7.6 13.66 -11 14 C-10.67 14.99 -10.34 15.98 -10 17 C-11.32 16.67 -12.64 16.34 -14 16 C-14 15.34 -14 14.68 -14 14 C-14.66 14 -15.32 14 -16 14 C-16 13.34 -16 12.68 -16 12 C-16.66 12 -17.32 12 -18 12 C-18 14.31 -18 16.62 -18 19 C-18.33 19 -18.66 19 -19 19 C-19.37233816 14.34577299 -19.46507989 10.94804747 -17.375 6.6875 C-11.98004101 0.58267799 -7.85019395 -0.62801552 0 0 Z " fill="#2D2C2A" transform="translate(245,211)"/>
<path d="M0 0 C0.66 0 1.32 0 2 0 C2.33 5.94 2.66 11.88 3 18 C0.69 18 -1.62 18 -4 18 C-4 12.39 -4 6.78 -4 1 C-2.68 1.33 -1.36 1.66 0 2 C0 1.34 0 0.68 0 0 Z " fill="#0F0E0E" transform="translate(354,222)"/>
<path d="M0 0 C0.66 0.66 1.32 1.32 2 2 C1.9375 4.5 1.9375 4.5 1 7 C-1.1875 8.5625 -1.1875 8.5625 -4 9 C-4.886875 8.401875 -5.77375 7.80375 -6.6875 7.1875 C-11.06169205 4.29888261 -14.86219299 4.20307538 -20 4 C-20 3.67 -20 3.34 -20 3 C-17.36 2.67 -14.72 2.34 -12 2 C-11.67 1.01 -11.34 0.02 -11 -1 C-6.60241521 -2.02269414 -4.02870334 -2.1262601 0 0 Z " fill="#3F3E3C" transform="translate(221,199)"/>
<path d="M0 0 C1.79244141 0.01740234 1.79244141 0.01740234 3.62109375 0.03515625 C5.41740234 0.04869141 5.41740234 0.04869141 7.25 0.0625 C8.17683594 0.07410156 9.10367188 0.08570313 10.05859375 0.09765625 C10.38859375 1.41765625 10.71859375 2.73765625 11.05859375 4.09765625 C12.37859375 3.76765625 13.69859375 3.43765625 15.05859375 3.09765625 C15.38859375 4.41765625 15.71859375 5.73765625 16.05859375 7.09765625 C15.39859375 7.09765625 14.73859375 7.09765625 14.05859375 7.09765625 C14.05859375 7.75765625 14.05859375 8.41765625 14.05859375 9.09765625 C9.30859375 10.22265625 9.30859375 10.22265625 7.05859375 9.09765625 C5.93359375 7.03515625 5.93359375 7.03515625 5.05859375 5.09765625 C4.31609375 5.18015625 3.57359375 5.26265625 2.80859375 5.34765625 C-0.72297652 5.02660441 -1.70770989 3.74500008 -3.94140625 1.09765625 C-2.94140625 0.09765625 -2.94140625 0.09765625 0 0 Z " fill="#E889B3" transform="translate(124.94140625,179.90234375)"/>
<path d="M0 0 C0.66 0 1.32 0 2 0 C1.51219512 5.48780488 1.51219512 5.48780488 -0.875 7.875 C-3 9 -3 9 -6 9 C-6 11.97 -6 14.94 -6 18 C-7.66611905 18.042721 -9.33382885 18.04063832 -11 18 C-12 17 -12 17 -12.09765625 15.15234375 C-12.06510417 13.1015625 -12.03255208 11.05078125 -12 9 C-11.34 9 -10.68 9 -10 9 C-9.67 8.34 -9.34 7.68 -9 7 C-8.34 7.33 -7.68 7.66 -7 8 C-7 7.34 -7 6.68 -7 6 C-6.34 5.34 -5.68 4.68 -5 4 C-5 3.34 -5 2.68 -5 2 C-3.35 2 -1.7 2 0 2 C0 1.34 0 0.68 0 0 Z " fill="#100F0F" transform="translate(421,220)"/>
<path d="M0 0 C1.32 0 2.64 0 4 0 C4.125 2.375 4.125 2.375 4 5 C3.34 5.66 2.68 6.32 2 7 C2.020625 8.155 2.04125 9.31 2.0625 10.5 C2.041875 11.655 2.02125 12.81 2 14 C1.01 14.66 0.02 15.32 -1 16 C-1 15.34 -1 14.68 -1 14 C-3.31 14.33 -5.62 14.66 -8 15 C-7.67 14.01 -7.34 13.02 -7 12 C-8.65 12 -10.3 12 -12 12 C-12 11.67 -12 11.34 -12 11 C-11.04287109 10.81824219 -11.04287109 10.81824219 -10.06640625 10.6328125 C-9.24011719 10.46523437 -8.41382813 10.29765625 -7.5625 10.125 C-6.32693359 9.88136719 -6.32693359 9.88136719 -5.06640625 9.6328125 C-4.38449219 9.42398438 -3.70257813 9.21515625 -3 9 C-2.67 8.34 -2.34 7.68 -2 7 C-5.96 7 -9.92 7 -14 7 C-14 6.67 -14 6.34 -14 6 C-10.04 6 -6.08 6 -2 6 C-2 5.34 -2 4.68 -2 4 C-1.34 4 -0.68 4 0 4 C0 2.68 0 1.36 0 0 Z " fill="#373736" transform="translate(460,222)"/>
<path d="M0 0 C3.86790003 2.90092502 4.80791648 4.03359914 6.75 8.1875 C7.39195312 9.53908203 7.39195312 9.53908203 8.046875 10.91796875 C8.36140625 11.60503906 8.6759375 12.29210937 9 13 C7.68 12.67 6.36 12.34 5 12 C4.01 13.485 4.01 13.485 3 15 C2.67 15.33 2.34 15.66 2 16 C1.76472227 18.34987262 1.58613583 20.70556039 1.4375 23.0625 C1.35371094 24.35285156 1.26992187 25.64320313 1.18359375 26.97265625 C1.12300781 27.97167969 1.06242188 28.97070312 1 30 C0.67 30 0.34 30 0 30 C0 20.1 0 10.2 0 0 Z " fill="#E893B5" transform="translate(153,192)"/>
<path d="M0 0 C0.33 0 0.66 0 1 0 C1 10.23 1 20.46 1 31 C0.67 30.34 0.34 29.68 0 29 C-0.99 28.67 -1.98 28.34 -3 28 C-4.25 26.25 -4.25 26.25 -5 24 C-4.71919567 22.32368326 -4.37761901 20.65719425 -4 19 C-3.82339844 18.11699219 -3.64679688 17.23398438 -3.46484375 16.32421875 C-2.9765625 13.8828125 -2.48828125 11.44140625 -2 9 C-1.67 9 -1.34 9 -1 9 C-0.67 6.03 -0.34 3.06 0 0 Z " fill="#EFA3D3" transform="translate(95,214)"/>
<path d="M0 0 C1.32 0.33 2.64 0.66 4 1 C3.34 1 2.68 1 2 1 C1.896875 2.0725 1.79375 3.145 1.6875 4.25 C1.02797801 7.84739269 0.54223809 9.45776191 -2 12 C-2.66 12 -3.32 12 -4 12 C-4.33 11.01 -4.66 10.02 -5 9 C-6.98 9 -8.96 9 -11 9 C-11.66 10.32 -12.32 11.64 -13 13 C-13.99 12.67 -14.98 12.34 -16 12 C-15.67 11.34 -15.34 10.68 -15 10 C-14.34 10 -13.68 10 -13 10 C-12.67 8.35 -12.34 6.7 -12 5 C-11.278125 5.2475 -10.55625 5.495 -9.8125 5.75 C-6.84193994 6.31762411 -6.84193994 6.31762411 -4.3125 4.125 C-3.549375 3.42375 -2.78625 2.7225 -2 2 C-1.34 1.67 -0.68 1.34 0 1 C0 0.67 0 0.34 0 0 Z " fill="#F1B5D1" transform="translate(159,228)"/>
<path d="M0 0 C0.33 0.66 0.66 1.32 1 2 C0.34 1.67 -0.32 1.34 -1 1 C-0.67 0.67 -0.34 0.34 0 0 Z M-11 1 C-9.54257537 0.91903197 -8.08387193 0.86082226 -6.625 0.8125 C-5.81289062 0.77769531 -5.00078125 0.74289063 -4.1640625 0.70703125 C-3.44992188 0.80371094 -2.73578125 0.90039062 -2 1 C-1.34 1.99 -0.68 2.98 0 4 C-0.99 4.495 -0.99 4.495 -2 5 C-2.33 5.99 -2.66 6.98 -3 8 C-5.64 8 -8.28 8 -11 8 C-11 7.01 -11 6.02 -11 5 C-11.66 5 -12.32 5 -13 5 C-12.34 3.68 -11.68 2.36 -11 1 Z " fill="#0E0D0D" transform="translate(213,232)"/>
<path d="M0 0 C0.66 0 1.32 0 2 0 C2.2475 0.639375 2.495 1.27875 2.75 1.9375 C3.81562433 4.18741541 3.81562433 4.18741541 6.125 4.75 C6.74375 4.8325 7.3625 4.915 8 5 C7.67 5.66 7.34 6.32 7 7 C7.99 6.67 8.98 6.34 10 6 C10.99 7.485 10.99 7.485 12 9 C11.01 9.33 10.02 9.66 9 10 C7.79117904 12.00016466 7.79117904 12.00016466 7 14 C5.1875 13.5 5.1875 13.5 3 12 C0.87426403 7.96199109 0 4.57422506 0 0 Z " fill="#1F1E1C" transform="translate(435,224)"/>
<path d="M0 0 C1.36125 0.12375 1.36125 0.12375 2.75 0.25 C3.08 1.57 3.41 2.89 3.75 4.25 C0.78 6.725 0.78 6.725 -2.25 9.25 C-3.24 8.59 -4.23 7.93 -5.25 7.25 C-5.25 6.59 -5.25 5.93 -5.25 5.25 C-5.91 4.92 -6.57 4.59 -7.25 4.25 C-4.83923194 1.28290085 -3.90322061 0.30024774 0 0 Z " fill="#252521" transform="translate(428.25,210.75)"/>
<path d="M0 0 C3.125 0.375 3.125 0.375 6 1 C6.625 3.375 6.625 3.375 7 6 C6.34 6.66 5.68 7.32 5 8 C1.375 7.625 1.375 7.625 -2 7 C-2.125 4.625 -2.125 4.625 -2 2 C-1.34 1.34 -0.68 0.68 0 0 Z " fill="#4D4B47" transform="translate(363,195)"/>
<path d="M0 0 C1.916588 -0.02712153 3.8332873 -0.04645097 5.75 -0.0625 C7.35101563 -0.07990234 7.35101563 -0.07990234 8.984375 -0.09765625 C11.53368501 -0.01510087 13.57933591 0.25382442 16 1 C16 1.66 16 2.32 16 3 C14.824375 3.1546875 14.824375 3.1546875 13.625 3.3125 C10.66954819 3.77595022 10.66954819 3.77595022 9 7 C6.375 7.1875 6.375 7.1875 4 7 C3.67 5.02 3.34 3.04 3 1 C2.01 0.67 1.02 0.34 0 0 Z " fill="#21201E" transform="translate(200,195)"/>
<path d="M0 0 C5.67276511 -0.29341888 8.99067246 -0.00559652 14 3 C14 4.32 14 5.64 14 7 C9.92857143 10 9.92857143 10 7 10 C6.31292445 7.50935112 6 5.62113708 6 3 C4.02 2.34 2.04 1.68 0 1 C0 0.67 0 0.34 0 0 Z " fill="#363735" transform="translate(386,211)"/>
<path d="M0 0 C0.33 0 0.66 0 1 0 C1 8.91 1 17.82 1 27 C1.33 26.01 1.66 25.02 2 24 C4.5625 22.8125 4.5625 22.8125 7 22 C7.33 23.98 7.66 25.96 8 28 C5.36 28 2.72 28 0 28 C0 18.76 0 9.52 0 0 Z " fill="#7A7873" transform="translate(257,212)"/>
<path d="M0 0 C3.0625 0.1875 3.0625 0.1875 5.0625 2.1875 C5.0625 3.5075 5.0625 4.8275 5.0625 6.1875 C1.4325 6.1875 -2.1975 6.1875 -5.9375 6.1875 C-3.55322052 0.22680131 -3.55322052 0.22680131 0 0 Z " fill="#121111" transform="translate(240.9375,233.8125)"/>
<path d="M0 0 C1.32 0.33 2.64 0.66 4 1 C3.67 1.61875 3.34 2.2375 3 2.875 C1.85806765 4.91018344 1.85806765 4.91018344 2 7 C-1.3 7 -4.6 7 -8 7 C-8.33 7.66 -8.66 8.32 -9 9 C-9.33 8.34 -9.66 7.68 -10 7 C-9.67 6.34 -9.34 5.68 -9 5 C-9.66 4.67 -10.32 4.34 -11 4 C-9.33657163 2.33657163 -7.2174291 2.63951903 -4.9375 2.4375 C-3.55884766 2.31181641 -3.55884766 2.31181641 -2.15234375 2.18359375 C-1.44207031 2.12300781 -0.73179687 2.06242188 0 2 C0 1.34 0 0.68 0 0 Z " fill="#0F0E0D" transform="translate(244,221)"/>
<path d="M0 0 C2 2 2 2 2 6 C1.34 6 0.68 6 0 6 C0 6.66 0 7.32 0 8 C-0.99 8.33 -1.98 8.66 -3 9 C-3.33 13.62 -3.66 18.24 -4 23 C-4.33 23 -4.66 23 -5 23 C-5.04898437 21.73542969 -5.09796875 20.47085938 -5.1484375 19.16796875 C-5.2234738 17.50779053 -5.29902127 15.84763536 -5.375 14.1875 C-5.42140625 12.93743164 -5.42140625 12.93743164 -5.46875 11.66210938 C-5.50742187 10.85966797 -5.54609375 10.05722656 -5.5859375 9.23046875 C-5.6173584 8.49207764 -5.6487793 7.75368652 -5.68115234 6.99291992 C-5.90834614 4.68650412 -5.90834614 4.68650412 -8 2 C-6.68 2 -5.36 2 -4 2 C-4 2.66 -4 3.32 -4 4 C-3.01 4 -2.02 4 -1 4 C-0.67 2.68 -0.34 1.36 0 0 Z " fill="#4F4E4B" transform="translate(354,216)"/>
<path d="M0 0 C4.84441643 0.04885126 8.03065085 0.31632042 12.01171875 3.3984375 C11.68171875 4.0584375 11.35171875 4.7184375 11.01171875 5.3984375 C10.43421875 5.1921875 9.85671875 4.9859375 9.26171875 4.7734375 C6.45703081 4.30598951 5.45400322 5.05912021 3.01171875 6.3984375 C2.02171875 6.3984375 1.03171875 6.3984375 0.01171875 6.3984375 C-0.31828125 5.7384375 -0.64828125 5.0784375 -0.98828125 4.3984375 C-1.97828125 4.0684375 -2.96828125 3.7384375 -3.98828125 3.3984375 C-1.98828125 0.3984375 -1.98828125 0.3984375 0 0 Z " fill="#3A3A37" transform="translate(341.98828125,210.6015625)"/>
<path d="M0 0 C0.33 0 0.66 0 1 0 C1.02685095 2.47923801 1.04676547 4.9581884 1.0625 7.4375 C1.07087891 8.14455078 1.07925781 8.85160156 1.08789062 9.58007812 C1.09653588 11.38693559 1.05220011 13.19387603 1 15 C0 16 0 16 -3.5625 16.0625 C-4.696875 16.041875 -5.83125 16.02125 -7 16 C-7 14.35 -7 12.7 -7 11 C-5.02 10.67 -3.04 10.34 -1 10 C-0.67 6.7 -0.34 3.4 0 0 Z " fill="#5A5953" transform="translate(336,224)"/>
<path d="M0 0 C0.875 1.875 0.875 1.875 1 4 C-0.1875 5.8125 -0.1875 5.8125 -2 7 C-4.1875 6.6875 -4.1875 6.6875 -6 6 C-5.34 6 -4.68 6 -4 6 C-4 5.34 -4 4.68 -4 4 C-4.66 4 -5.32 4 -6 4 C-5.67 3.01 -5.34 2.02 -5 1 C-8.60992379 1.65585189 -8.60992379 1.65585189 -12 3 C-12.66 2.34 -13.32 1.68 -14 1 C-9.54966382 -1.84821516 -4.89728799 -1.63242933 0 0 Z " fill="#51504E" transform="translate(488,212)"/>
<path d="M0 0 C2 3 2 3 2 5 C2.66 5.33 3.32 5.66 4 6 C3.01 6.495 3.01 6.495 2 7 C2 8.32 2 9.64 2 11 C0.8553125 11.2165625 0.8553125 11.2165625 -0.3125 11.4375 C-3.08172908 11.9632594 -3.08172908 11.9632594 -6 13 C-6.33 11.68 -6.66 10.36 -7 9 C-6.360625 8.7525 -5.72125 8.505 -5.0625 8.25 C-2.83323057 7.20668205 -2.83323057 7.20668205 -2.375 5.0625 C-2.25125 4.381875 -2.1275 3.70125 -2 3 C-1.34 2.01 -0.68 1.02 0 0 Z " fill="#0D0D0B" transform="translate(443,214)"/>
<path d="M0 0 C2.625 0.25 2.625 0.25 4.4375 1.75 C4.829375 2.245 5.22125 2.74 5.625 3.25 C3.315 4.57 1.005 5.89 -1.375 7.25 C-2.365 6.59 -3.355 5.93 -4.375 5.25 C-4.375 6.24 -4.375 7.23 -4.375 8.25 C-6.355 8.25 -8.335 8.25 -10.375 8.25 C-9.09985508 5.69971017 -7.97158703 5.31918289 -5.375 4.25 C-4.385 4.25 -3.395 4.25 -2.375 4.25 C-2.705 3.26 -3.035 2.27 -3.375 1.25 C-2.375 0.25 -2.375 0.25 0 0 Z " fill="#F099C0" transform="translate(117.375,185.75)"/>
<path d="M0 0 C0.66 0 1.32 0 2 0 C2 10.23 2 20.46 2 31 C1.67 31 1.34 31 1 31 C0.11478044 21.62615713 -0.10606225 12.40418591 0 3 C0 2.01 0 1.02 0 0 Z " fill="#DC8BAD" transform="translate(103,209)"/>
<path d="M0 0 C1.32 0 2.64 0 4 0 C4.125 2.375 4.125 2.375 4 5 C2 7 2 7 -1.6953125 7.1953125 C-3.17200108 7.182009 -4.64862358 7.15814835 -6.125 7.125 C-6.87910156 7.11597656 -7.63320313 7.10695312 -8.41015625 7.09765625 C-10.27357254 7.0740687 -12.13682593 7.03819719 -14 7 C-14 6.67 -14 6.34 -14 6 C-10.04 6 -6.08 6 -2 6 C-2 5.34 -2 4.68 -2 4 C-1.34 4 -0.68 4 0 4 C0 2.68 0 1.36 0 0 Z " fill="#625F5C" transform="translate(460,222)"/>
<path d="M0 0 C1.32 0.66 2.64 1.32 4 2 C4 2.99 4 3.98 4 5 C3.38125 5.268125 2.7625 5.53625 2.125 5.8125 C-0.2995233 6.95556848 -0.2995233 6.95556848 -2 10 C-2 9.34 -2 8.68 -2 8 C-2.99 8 -3.98 8 -5 8 C-4.67 6.35 -4.34 4.7 -4 3 C-2.68 3 -1.36 3 0 3 C0 2.01 0 1.02 0 0 Z " fill="#0F0E0F" transform="translate(189,204)"/>
<path d="M0 0 C1.32 0.99 2.64 1.98 4 3 C3.67 3.99 3.34 4.98 3 6 C2.67 6 2.34 6 2 6 C1.67 13.92 1.34 21.84 1 30 C0.67 30 0.34 30 0 30 C0 20.1 0 10.2 0 0 Z " fill="#E2A6BD" transform="translate(153,192)"/>
<path d="M0 0 C2.875 -0.1875 2.875 -0.1875 6 0 C8 3 8 3 8 6 C6.5 7.6875 6.5 7.6875 5 9 C0.57142857 3.85714286 0.57142857 3.85714286 0 0 Z M5 1 C6 3 6 3 6 3 Z " fill="#282726" transform="translate(185,226)"/>
<path d="M0 0 C0.66 0 1.32 0 2 0 C1.51566469 5.44877223 1.51566469 5.44877223 -0.8125 7.9375 C-3 9 -3 9 -5.25 8.6875 C-5.8275 8.460625 -6.405 8.23375 -7 8 C-7 6 -7 6 -5 4 C-5 3.34 -5 2.68 -5 2 C-3.35 2 -1.7 2 0 2 C0 1.34 0 0.68 0 0 Z " fill="#0A0909" transform="translate(421,220)"/>
<path d="M0 0 C5.94 0 11.88 0 18 0 C18 0.66 18 1.32 18 2 C9.585 2.495 9.585 2.495 1 3 C0.67 2.01 0.34 1.02 0 0 Z " fill="#E9C2D0" transform="translate(117,178)"/>
<path d="M0 0 C0.99 0 1.98 0 3 0 C5 2 5 2 6 5 C5.01 5.66 4.02 6.32 3 7 C3 6.01 3 5.02 3 4 C2.34 4 1.68 4 1 4 C1 4.66 1 5.32 1 6 C-0.32 6 -1.64 6 -3 6 C-2.42655063 3.13275314 -2.1385485 2.1385485 0 0 Z " fill="#191815" transform="translate(420,216)"/>
<path d="M0 0 C-0.185625 0.598125 -0.37125 1.19625 -0.5625 1.8125 C-1.22093687 4.16408762 -1.22093687 4.16408762 0 7 C-0.99 7 -1.98 7 -3 7 C-3 6.01 -3 5.02 -3 4 C-4.65 3.67 -6.3 3.34 -8 3 C-8 2.01 -8 1.02 -8 0 C-4.71023192 -1.09658936 -3.28696233 -0.79953138 0 0 Z " fill="#E689B1" transform="translate(98,204)"/>
<path d="M0 0 C0.66 0.33 1.32 0.66 2 1 C1.525625 1.7425 1.05125 2.485 0.5625 3.25 C-0.77869327 5.61050015 -1.512312 7.36648477 -2 10 C-3.65 10.33 -5.3 10.66 -7 11 C-6.34 8.69 -5.68 6.38 -5 4 C-4.34 4 -3.68 4 -3 4 C-3 3.34 -3 2.68 -3 2 C-2.01 1.34 -1.02 0.68 0 0 Z " fill="#2A2A28" transform="translate(443,212)"/>
<path d="M0 0 C2.33294775 -0.04241723 4.66702567 -0.04092937 7 0 C8 1 8 1 8.09765625 4.37890625 C8.09098369 5.77347077 8.07902532 7.16801743 8.0625 8.5625 C8.05798828 9.27341797 8.05347656 9.98433594 8.04882812 10.71679688 C8.03700864 12.47790013 8.01907263 14.23896036 8 16 C7.67 16 7.34 16 7 16 C6.67 11.71 6.34 7.42 6 3 C4.02 3.33 2.04 3.66 0 4 C0 2.68 0 1.36 0 0 Z " fill="#3D3B38" transform="translate(407,195)"/>
<path d="M0 0 C0.66 0.33 1.32 0.66 2 1 C1.505 1.433125 1.01 1.86625 0.5 2.3125 C-1.33218192 3.99740483 -1.33218192 3.99740483 -1 7 C-6.75 8 -6.75 8 -9 8 C-9.99 8.495 -9.99 8.495 -11 9 C-9.56284053 5.35242679 -7.92288356 4.02674425 -4.5 2.1875 C-3.7059375 1.74792969 -2.911875 1.30835938 -2.09375 0.85546875 C-1.4028125 0.57316406 -0.711875 0.29085937 0 0 Z " fill="#ECAAC3" transform="translate(105,182)"/>
<path d="M0 0 C-1 1 -1 1 -4.59765625 1.09765625 C-6.08596867 1.0909822 -7.57426432 1.07902183 -9.0625 1.0625 C-9.82111328 1.05798828 -10.57972656 1.05347656 -11.36132812 1.04882812 C-13.24091871 1.0370068 -15.12046899 1.01907078 -17 1 C-17.33 0.34 -17.66 -0.32 -18 -1 C-15.56304285 -1.22181406 -13.126474 -1.42791119 -10.6875 -1.625 C-9.99720703 -1.68945312 -9.30691406 -1.75390625 -8.59570312 -1.8203125 C-4.7440028 -2.11802847 -3.31145584 -2.20763723 0 0 Z " fill="#EAC0D1" transform="translate(131,256)"/>
<path d="M0 0 C0.66 0.33 1.32 0.66 2 1 C1.979375 1.804375 1.95875 2.60875 1.9375 3.4375 C1.70366379 5.93354885 1.70366379 5.93354885 3 7 C3.33 6.01 3.66 5.02 4 4 C4 5.32 4 6.64 4 8 C1.69 8 -0.62 8 -3 8 C-2.67 6.02 -2.34 4.04 -2 2 C-1.34 2 -0.68 2 0 2 C0 1.34 0 0.68 0 0 Z " fill="#242324" transform="translate(353,232)"/>
<path d="M0 0 C0.33 0 0.66 0 1 0 C1.1431032 3.93267389 1.28550028 7.86537265 1.42724609 11.7980957 C1.49930096 13.79314504 1.57191337 15.78817421 1.64453125 17.78320312 C1.68964844 19.03681641 1.73476562 20.29042969 1.78125 21.58203125 C1.82314453 22.73936768 1.86503906 23.8967041 1.90820312 25.08911133 C1.97031439 27.05866602 2 29.02946619 2 31 C1.34 31 0.68 31 0 31 C0 20.77 0 10.54 0 0 Z " fill="#DA92AD" transform="translate(143,195)"/>
<path d="M0 0 C0.33 0 0.66 0 1 0 C1 5.61 1 11.22 1 17 C-0.65 17 -2.3 17 -4 17 C-3.67 15.35 -3.34 13.7 -3 12 C-2.34 12 -1.68 12 -1 12 C-0.67 8.04 -0.34 4.08 0 0 Z " fill="#1C1B19" transform="translate(381,223)"/>
<path d="M0 0 C-0.99 1.485 -0.99 1.485 -2 3 C-1.34 3 -0.68 3 0 3 C0 3.66 0 4.32 0 5 C-2.375 5.625 -2.375 5.625 -5 6 C-5.66 5.34 -6.32 4.68 -7 4 C-6.75 1.9375 -6.75 1.9375 -6 0 C-3.50907189 -1.24546405 -2.58919267 -0.7767578 0 0 Z " fill="#0E0D0D" transform="translate(484,213)"/>
<path d="M0 0 C1.32 0.33 2.64 0.66 4 1 C3.34 1 2.68 1 2 1 C1.896875 2.11375 1.79375 3.2275 1.6875 4.375 C1.460625 5.57125 1.23375 6.7675 1 8 C0.01 8.66 -0.98 9.32 -2 10 C-3.125 8.25 -3.125 8.25 -4 6 C-3.07451225 3.30066074 -2.57626463 2.28813232 0 1 C0 0.67 0 0.34 0 0 Z " fill="#E7ABC3" transform="translate(159,228)"/>
<path d="M0 0 C0 0.66 0 1.32 0 2 C0.99 2.33 1.98 2.66 3 3 C2.67 1.68 2.34 0.36 2 -1 C2.66 -0.67 3.32 -0.34 4 0 C4 1.32 4 2.64 4 4 C1.36 4 -1.28 4 -4 4 C-4.66 2.68 -5.32 1.36 -6 0 C-3.50907189 -1.24546405 -2.58919267 -0.7767578 0 0 Z " fill="#4E4D4A" transform="translate(430,236)"/>
<path d="M0 0 C0 1.65 0 3.3 0 5 C-1.98 5 -3.96 5 -6 5 C-6 3.35 -6 1.7 -6 0 C-3.50907189 -1.24546405 -2.58919267 -0.7767578 0 0 Z " fill="#161615" transform="translate(402,235)"/>
<path d="M0 0 C2.97 0 5.94 0 9 0 C7.02 0.99 7.02 0.99 5 2 C4.67 2.99 4.34 3.98 4 5 C1 7 1 7 -2 7 C-1.34 4.69 -0.68 2.38 0 0 Z " fill="#E78BB4" transform="translate(101,202)"/>
<path d="M0 0 C0.66 0.33 1.32 0.66 2 1 C1.74609375 2.85546875 1.74609375 2.85546875 1 5 C-0.77734375 6.30078125 -0.77734375 6.30078125 -2.9375 7.3125 C-3.64777344 7.65925781 -4.35804687 8.00601563 -5.08984375 8.36328125 C-6.03537109 8.67845703 -6.03537109 8.67845703 -7 9 C-7.66 8.67 -8.32 8.34 -9 8 C-7.38944319 6.22838751 -6.1075243 5.05213299 -3.9375 4 C-1.66757845 3.02674942 -1.66757845 3.02674942 0 0 Z " fill="#E28BAF" transform="translate(97,194)"/>
<path d="M0 0 C0.66 0 1.32 0 2 0 C2 0.66 2 1.32 2 2 C2.66 2 3.32 2 4 2 C4 4.64 4 7.28 4 10 C3.34 9.67 2.68 9.34 2 9 C2 8.34 2 7.68 2 7 C1.34 7 0.68 7 0 7 C0 4.69 0 2.38 0 0 Z " fill="#100F0D" transform="translate(227,223)"/>
<path d="M0 0 C0.66 0.33 1.32 0.66 2 1 C1.67 2.65 1.34 4.3 1 6 C-1.64 6 -4.28 6 -7 6 C-7.33 5.34 -7.66 4.68 -8 4 C-7.236875 3.896875 -6.47375 3.79375 -5.6875 3.6875 C-2.82940576 2.95635961 -1.84257115 2.23048087 0 0 Z " fill="#F0A5C9" transform="translate(98,198)"/>
<path d="M0 0 C0.99 0 1.98 0 3 0 C3.33 1.98 3.66 3.96 4 6 C2.02 6 0.04 6 -2 6 C-2.33 5.34 -2.66 4.68 -3 4 C-2.34 4 -1.68 4 -1 4 C-0.67 2.68 -0.34 1.36 0 0 Z " fill="#222220" transform="translate(306,234)"/>
<path d="M0 0 C2.64 0.66 5.28 1.32 8 2 C8 2.33 8 2.66 8 3 C6.329375 3.4021875 6.329375 3.4021875 4.625 3.8125 C0.78159049 4.65809019 0.78159049 4.65809019 -1 8 C-2.32 7.34 -3.64 6.68 -5 6 C-4.34 6 -3.68 6 -3 6 C-2.67 5.01 -2.34 4.02 -2 3 C-1.34 2.67 -0.68 2.34 0 2 C0 1.34 0 0.68 0 0 Z " fill="#4D4B49" transform="translate(236,231)"/>
<path d="M0 0 C0.33 1.32 0.66 2.64 1 4 C-2.96 4.66 -6.92 5.32 -11 6 C-7.92832129 2.92832129 -4.55956968 0 0 0 Z " fill="#E999BA" transform="translate(150,225)"/>
<path d="M0 0 C0.66 0.33 1.32 0.66 2 1 C1.21625 1.7425 0.4325 2.485 -0.375 3.25 C-2.56504531 5.54433318 -3.82731386 7.12158858 -5 10 C-5.99 10 -6.98 10 -8 10 C-6.5682479 4.98886765 -4.01554307 3.05530451 0 0 Z " fill="#4F4D4D" transform="translate(194,197)"/>
<path d="M0 0 C1.32 0.33 2.64 0.66 4 1 C4.33 2.65 4.66 4.3 5 6 C3.35 5.67 1.7 5.34 0 5 C0 3.35 0 1.7 0 0 Z " fill="#1A1918" transform="translate(241,234)"/>
<path d="M0 0 C0.66 0.33 1.32 0.66 2 1 C0.82191948 4.3529984 -0.19406612 6.7552529 -3 9 C-3.99 9.33 -4.98 9.66 -6 10 C-6.33 9.34 -6.66 8.68 -7 8 C-5.68 7.34 -4.36 6.68 -3 6 C-3 5.34 -3 4.68 -3 4 C-2.34 4 -1.68 4 -1 4 C-0.67 2.68 -0.34 1.36 0 0 Z " fill="#E3A0BB" transform="translate(154,239)"/>
<path d="M0 0 C1.4540625 0.0309375 1.4540625 0.0309375 2.9375 0.0625 C-0.0625 2.0625 -0.0625 2.0625 -2.0625 2.0625 C-2.0625 6.6825 -2.0625 11.3025 -2.0625 16.0625 C-2.3925 16.0625 -2.7225 16.0625 -3.0625 16.0625 C-3.25639096 13.5836787 -3.44290123 11.10469069 -3.625 8.625 C-3.68107422 7.91794922 -3.73714844 7.21089844 -3.79492188 6.48242188 C-3.92440993 4.67822163 -3.99771608 2.87018048 -4.0625 1.0625 C-3.0625 0.0625 -3.0625 0.0625 0 0 Z " fill="#7F7D78" transform="translate(332.0625,194.9375)"/>
<path d="M0 0 C0.99 0.66 1.98 1.32 3 2 C0.89851796 5.98175544 -1.36905358 8.35039045 -5 11 C-3.55049545 7.2089881 -1.84827434 3.6125362 0 0 Z " fill="#E7A4BD" transform="translate(93,191)"/>
<path d="M0 0 C2.64 0.33 5.28 0.66 8 1 C8.66 2.65 9.32 4.3 10 6 C6.00499382 4.6302836 3.19990508 2.74277578 0 0 Z " fill="#E79EBC" transform="translate(103,250)"/>
<path d="M0 0 C0.66 0.33 1.32 0.66 2 1 C2 1.99 2 2.98 2 4 C-0.375 5.75 -0.375 5.75 -3 7 C-3.66 6.67 -4.32 6.34 -5 6 C-4.34 4.68 -3.68 3.36 -3 2 C-2.01 2 -1.02 2 0 2 C0 1.34 0 0.68 0 0 Z " fill="#0E0D0D" transform="translate(400,216)"/>
<path d="M0 0 C1.32 0.66 2.64 1.32 4 2 C2.71186658 2.83878455 1.41936744 3.67086783 0.125 4.5 C-0.59429687 4.9640625 -1.31359375 5.428125 -2.0546875 5.90625 C-4 7 -4 7 -6 7 C-5.8125 5.125 -5.8125 5.125 -5 3 C-2.4375 1.75 -2.4375 1.75 0 1 C0 0.67 0 0.34 0 0 Z " fill="#EBA3C0" transform="translate(111,200)"/>
<path d="M0 0 C-1.26691507 0.67408308 -2.53870749 1.33900497 -3.8125 2 C-4.52019531 2.37125 -5.22789062 2.7425 -5.95703125 3.125 C-8 4 -8 4 -11 4 C-11 3.34 -11 2.68 -11 2 C-7.00042393 -0.06874624 -4.43559483 -1.37656391 0 0 Z " fill="#363531" transform="translate(221,236)"/>
<path d="M0 0 C0.66 0 1.32 0 2 0 C2.433125 0.9590625 2.433125 0.9590625 2.875 1.9375 C3.82823451 4.15206079 3.82823451 4.15206079 6 5 C4.68 6.65 3.36 8.3 2 10 C0.68373308 6.38026598 0 3.90432869 0 0 Z " fill="#494945" transform="translate(435,224)"/>
<path d="M0 0 C0.99 0.33 1.98 0.66 3 1 C3 1.99 3 2.98 3 4 C2.01 4.495 2.01 4.495 1 5 C0.34786708 7.02463255 0.34786708 7.02463255 0 9 C-2 6 -2 6 -1.6875 3.9375 C-1 2 -1 2 0 0 Z " fill="#1F1F1D" transform="translate(245,212)"/>
<path d="M0 0 C0.763125 0.309375 1.52625 0.61875 2.3125 0.9375 C4.18789677 1.67893593 6.08684652 2.36228217 8 3 C8 3.66 8 4.32 8 5 C2.46153846 5.36923077 2.46153846 5.36923077 0.125 3.5 C-0.24625 3.005 -0.6175 2.51 -1 2 C-0.67 1.34 -0.34 0.68 0 0 Z " fill="#E389B0" transform="translate(119,183)"/>
<path d="M0 0 C2.6465335 2.6465335 3.59941997 5.56221264 5 9 C3.125 8.6875 3.125 8.6875 1 8 C-1 5 -1 5 -0.625 2.3125 C-0.41875 1.549375 -0.2125 0.78625 0 0 Z " fill="#4B4A49" transform="translate(190,219)"/>
<path d="M0 0 C1.98 0.495 1.98 0.495 4 1 C4 2.65 4 4.3 4 6 C3.01 6.495 3.01 6.495 2 7 C2 6.01 2 5.02 2 4 C1.01 3.67 0.02 3.34 -1 3 C-0.67 2.01 -0.34 1.02 0 0 Z " fill="#171515" transform="translate(191,202)"/>
<path d="M0 0 C1.98 0 3.96 0 6 0 C6.33 1.32 6.66 2.64 7 4 C6.01 4.66 5.02 5.32 4 6 C3.71125 5.38125 3.4225 4.7625 3.125 4.125 C2.06279958 1.86674235 2.06279958 1.86674235 0 0 Z " fill="#676663" transform="translate(425,211)"/>
<path d="M0 0 C2.97 0 5.94 0 9 0 C8.67 0.99 8.34 1.98 8 3 C2.25 3.125 2.25 3.125 0 2 C0 1.34 0 0.68 0 0 Z " fill="#696866" transform="translate(236,211)"/>
<path d="M0 0 C1.65 0.33 3.3 0.66 5 1 C5 1.99 5 2.98 5 4 C2.69 4 0.38 4 -2 4 C-1.34 2.68 -0.68 1.36 0 0 Z " fill="#191817" transform="translate(331,236)"/>
<path d="M0 0 C0.99 0.33 1.98 0.66 3 1 C3 3 3 3 1.5625 4.5 C1.046875 4.995 0.53125 5.49 0 6 C-0.33 6.66 -0.66 7.32 -1 8 C-1.99 7.67 -2.98 7.34 -4 7 C-3.67 6.34 -3.34 5.68 -3 5 C-2.34 5 -1.68 5 -1 5 C-0.67 3.35 -0.34 1.7 0 0 Z " fill="#F1AAC9" transform="translate(147,233)"/>
<path d="M0 0 C0.33 0.66 0.66 1.32 1 2 C1.99 2.33 2.98 2.66 4 3 C1.625 4.0625 1.625 4.0625 -1 5 C-1.66 4.67 -2.32 4.34 -3 4 C-2.67 3.01 -2.34 2.02 -2 1 C-1.34 0.67 -0.68 0.34 0 0 Z " fill="#E6A6BE" transform="translate(135,252)"/>
<path d="M0 0 C0.99 0.99 1.98 1.98 3 3 C2.01 3.33 1.02 3.66 0 4 C-1.20882096 6.00016466 -1.20882096 6.00016466 -2 8 C-2.66 7.34 -3.32 6.68 -4 6 C-3.34 6 -2.68 6 -2 6 C-2 4.35 -2 2.7 -2 1 C-1.34 0.67 -0.68 0.34 0 0 Z " fill="#383635" transform="translate(444,230)"/>
<path d="M0 0 C0.33 0 0.66 0 1 0 C1 3.3 1 6.6 1 10 C-1.17288535 7.82711465 -1.64827002 6.98970481 -2 4 C-1.0625 1.75 -1.0625 1.75 0 0 Z " fill="#030204" transform="translate(402,222)"/>
<path d="M0 0 C-0.66 2.31 -1.32 4.62 -2 7 C-2.99 5.68 -3.98 4.36 -5 3 C-2.25 0 -2.25 0 0 0 Z " fill="#322F2D" transform="translate(193,209)"/>
<path d="M0 0 C2.475 0.99 2.475 0.99 5 2 C3.75 3.5625 3.75 3.5625 2 5 C-0.1875 4.6875 -0.1875 4.6875 -2 4 C-1.34 2.68 -0.68 1.36 0 0 Z " fill="#EB97BD" transform="translate(130,250)"/>
<path d="M0 0 C1.32 0 2.64 0 4 0 C4 1.65 4 3.3 4 5 C2.68 4.67 1.36 4.34 0 4 C0 2.68 0 1.36 0 0 Z " fill="#3A3938" transform="translate(460,222)"/>
<path d="M0 0 C0.66 0.33 1.32 0.66 2 1 C0.35 2.98 -1.3 4.96 -3 7 C-3.66 6.01 -4.32 5.02 -5 4 C-4.34 4 -3.68 4 -3 4 C-3 3.34 -3 2.68 -3 2 C-2.01 1.34 -1.02 0.68 0 0 Z " fill="#484846" transform="translate(443,212)"/>
<path d="M0 0 C1.32 0 2.64 0 4 0 C4 1.32 4 2.64 4 4 C2.35 4 0.7 4 -1 4 C-0.67 2.68 -0.34 1.36 0 0 Z " fill="#373632" transform="translate(363,195)"/>
</svg>
